Entrapment*1999*[BluRay][1080p][ENG, POL]

General information:
Country: USA, UK, Germany 
Release: 29 April 1999
Genre: Action, Crime, Romance, Thriller 
Director: Jon Amiel
Screenplay: Ron Bass, William Broyles
Original Music: Christopher Young
Cinematography by: Phil Meheux
Duration: 1h 52mn
Language: English, Polish
Subtitles: English, Polish
Rating: 7.4/10 - 6450 votes 

Cast:
Sean Connery  ...  Robert MacDougal  
Catherine Zeta-Jones  ...  Virginia Baker  
Ving Rhames  ...  Aaron Thibadeaux  
Will Patton  ...  Hector Cruz  
Maury Chaykin  ...  Conrad Greene  
Kevin McNally  ...  Haas  
Terry O'Neill  ...  Quinn  
Madhav Sharma  ...  Security Chief  
David Yip  ...  Chief of Police  
Tim Potter  ...  Millennium Man  
Eric Meyers  ...  Waverly Technician  
Aaron Swartz  ...  Cruz's Man  
William Marsh  ...  Computer Technician  
Tony Xu  ...  Banker  
Rolf Saxon  ...  Director  

Plot:
An insurance agent is sent by her employer to track down and help capture an art thief. 

Specifications:
General
Format                           : Matroska
Overall bit rate                 : 9 238 Kbps

Video
Format                           : AVC
Format/Info                      : Advanced Video Codec
Format profile                   : Main@L4.0
Format settings, CABAC           : Yes
Format settings, ReFrames        : 3 frames
Format settings, GOP             : M=4, N=16
Muxing mode                      : Container profile=Unknown@4.0
Codec ID                         : V_MPEG4/ISO/AVC
Bit rate                         : 6 202 Kbps
Width                            : 1 920 pixels
Height                           : 1 080 pixels
Display aspect ratio             : 16:9
Frame rate                       : 23.976 fps

Audio 1
Format                           : DTS
Format/Info                      : Digital Theater Systems
Codec ID                         : A_DTS
Bit rate mode                    : Constant
Bit rate                         : 1 510 Kbps
Channel(s)                       : 6 channels
Channel positions                : Front: L C R, Side: L R, LFE
Sampling rate                    : 48.0 KHz
Bit depth                        : 24 bits
Stream size                      : 1.19 GiB (16%)
Title                            : English

Audio 2
Format                           : DTS
Format/Info                      : Digital Theater Systems
Codec ID                         : A_DTS
Bit rate mode                    : Constant
Bit rate                         : 1 510 Kbps
Channel(s)                       : 6 channels
Channel positions                : Front: L C R, Side: L R, LFE
Sampling rate                    : 48.0 KHz
Bit depth                        : 24 bits
Stream size                      : 1.19 GiB (16%)
Title                            : Polish
Language                         : Polish

Text 1
Format                           : UTF-8
Codec ID                         : S_TEXT/UTF8
Codec ID/Info                    : UTF-8 Plain Text
Title                            : English

Text 2
Format                           : UTF-8
Codec ID                         : S_TEXT/UTF8
Codec ID/Info                    : UTF-8 Plain Text
Title                            : Polish
